<svg width="256" height="256" viewBox="0 0 256 256" fill="none" xmlns="http://www.w3.org/2000/svg">
<rect width="256" height="256" fill="transparent"/>
<path d="M112.261 205.25C97.7473 205.25 84.3162 201.993 71.9683 195.48C59.837 188.75 50.0886 179.197 42.7232 166.822C35.5744 154.23 32 139.141 32 121.556C32 110.266 34.058 99.3026 38.174 88.6645C42.2899 78.0263 48.0306 68.4737 55.3961 60.0066C62.9781 51.3224 71.9683 44.4836 82.3665 39.4901C92.7648 34.4967 104.246 32 116.811 32C128.942 32 139.449 33.8454 148.33 37.5362C157.429 41.227 164.469 46.1119 169.452 52.1908C174.434 58.2697 176.926 64.8914 176.926 72.0559C176.926 76.8322 175.626 80.9572 173.026 84.4309C170.427 87.6875 166.636 89.3158 161.653 89.3158C156.237 89.5329 152.338 87.9046 149.955 84.4309C147.789 80.7401 146.706 77.4836 146.706 74.6612C146.706 72.4901 147.031 70.3191 147.681 68.148C148.33 65.7599 149.63 63.5888 151.58 61.6349C149.847 56.4243 146.814 52.625 142.481 50.2368C138.149 47.6316 133.6 46.0033 128.834 45.352C124.284 44.4836 120.493 44.0493 117.461 44.0493C102.73 44.0493 90.2735 50.0197 80.0919 61.9605C70.1269 73.6842 65.1444 90.8355 65.1444 113.414C65.1444 127.961 67.419 140.878 71.9683 152.168C76.7341 163.457 83.3414 172.359 91.7899 178.872C100.239 185.168 109.987 188.316 121.035 188.316C131.217 188.316 140.965 185.602 150.28 180.174C159.595 174.747 166.852 168.125 172.051 160.309L180.5 166.822C174.868 175.941 168.044 183.322 160.028 188.967C152.23 194.612 144.106 198.737 135.658 201.342C127.426 203.947 119.627 205.25 112.261 205.25Z" fill="black"/>
<path d="M182.142 217.788C186.382 217.788 189.323 216.752 190.965 214.682C192.606 212.473 193.564 209.505 193.837 205.777C194.111 201.912 194.248 197.494 194.248 192.525V145.312C194.248 143.103 194.316 141.032 194.453 139.1C194.59 137.029 194.795 134.613 195.068 131.852C192.606 131.99 190.144 132.128 187.682 132.266C185.356 132.404 182.962 132.542 180.5 132.68V123.983C186.519 123.983 191.17 123.707 194.453 123.155C197.736 122.603 200.198 121.912 201.84 121.084C203.618 120.256 204.986 119.359 205.943 118.392H211.894V202.05C211.894 204.811 211.825 207.296 211.689 209.505C211.689 211.576 211.483 213.784 211.073 216.131C213.262 215.993 215.382 215.924 217.434 215.924C219.623 215.786 221.811 215.648 224 215.51V224H182.142V217.788ZM201.84 97.8918C198.967 97.8918 196.436 96.7184 194.248 94.3716C192.059 92.0247 190.965 89.1257 190.965 85.6744C190.965 82.2232 192.059 79.3242 194.248 76.9773C196.573 74.4924 199.172 73.25 202.045 73.25C205.191 73.25 207.79 74.4924 209.842 76.9773C212.031 79.3242 213.125 82.2232 213.125 85.6744C213.125 89.1257 211.962 92.0247 209.637 94.3716C207.448 96.7184 204.849 97.8918 201.84 97.8918Z" fill="black"/>
</svg>
